<svg width="92" height="99" viewBox="0 0 92 99" fill="none" xmlns="http://www.w3.org/2000/svg">
<path d="M88.9516 47.8303H71.2086V24.079L89.6878 11.9632C90.121 11.6791 90.3838 11.1961 90.3838 10.6753V1.67011C90.3838 1.10433 90.0737 0.585865 89.5765 0.315992C89.0794 0.0484858 88.4758 0.0721635 88.0023 0.379914L0.698344 57.3965C0.26276 57.6806 0 58.1659 0 58.6844V69.2023C0 71.6832 2.01695 73.7002 4.49789 73.7002C6.97882 73.7002 8.99577 71.6832 8.99577 69.2023V64.8607L12.8592 62.3277V80.4896H8.48913C7.63927 80.4896 6.95038 81.1785 6.95038 82.0284V87.9467C6.95038 88.7965 7.63927 89.4854 8.48913 89.4854H11.7277V98.0125H13.2664H14.8052V89.4854H39.9507C40.8006 89.4854 41.4894 88.7965 41.4894 87.9467V82.0284C41.4894 81.1785 40.8006 80.4896 39.9507 80.4896H39.3068V73.151H64.4523C65.3022 73.151 65.9911 72.4621 65.9911 71.6122V65.694C65.9911 64.8441 65.3022 64.1552 64.4523 64.1552H63.8084V56.8166H88.954C89.8038 56.8166 90.4927 56.1277 90.4927 55.2778V49.3595C90.4904 48.5191 89.8015 47.8303 88.9516 47.8303ZM87.4128 53.7485H71.2086H69.6699H63.8061H63.3989H62.2673H61.8601H60.7286H59.0288V50.9078H61.8601H63.3989H64.9376H68.1311H69.6699H71.2086H87.4128V53.7485ZM14.8075 86.415H14.4004H13.2688H12.8616H11.73H10.0303V83.5742H12.8616H14.4004H15.9391H19.1326H20.6714H22.2101H38.4143V86.415H22.2101H20.6714H14.8075ZM43.6319 64.1647H40.4384V44.2556L43.6319 42.1629V64.1647ZM68.1311 47.8303H64.9376V28.191L68.1311 26.0984V47.8303ZM15.9391 60.3178L19.1326 58.2251V80.4991H15.9391V60.3178ZM36.2293 80.4967H22.2077V56.2058L37.3609 46.2725V64.1647H32.9908C32.1409 64.1647 31.452 64.8536 31.452 65.7034V71.6217C31.452 72.4716 32.1409 73.1605 32.9908 73.1605H36.2293V80.4967ZM39.3068 70.083H38.8996H37.768H37.3609H36.2293H34.5295V67.2422H37.3609H38.8996H40.4384H43.6319H45.1706H46.7094H62.9136V70.083H46.7094H45.1706H39.3068ZM60.7309 64.1647H46.7094V40.1436L61.8625 30.2104V47.8326H57.4924C56.6425 47.8326 55.9537 48.5215 55.9537 49.3714V55.2896C55.9537 56.1395 56.6425 56.8284 57.4924 56.8284H60.7309V64.1647Z" fill="#F6921E"/>
<rect x="56.3037" y="48.6196" width="33.5729" height="7" stroke="#F6921E" stroke-width="3"/>
<rect x="32.3889" y="64.8416" width="33.5729" height="7" stroke="#F6921E" stroke-width="3"/>
<rect x="7.4707" y="81.3143" width="33.5729" height="7" stroke="#F6921E" stroke-width="3"/>
<line x1="26.6799" y1="52.2561" x2="26.6799" y2="80.7908" stroke="#F6921E" stroke-width="3"/>
<line x1="51.4629" y1="34.8452" x2="51.4629" y2="63.9752" stroke="#F6921E" stroke-width="3"/>
<line x1="75.5897" y1="14.124" x2="76.3949" y2="49.0371" stroke="#F6921E" stroke-width="3"/>
</svg>
