<svg width="27" height="27" viewBox="0 0 27 27" fill="none" xmlns="http://www.w3.org/2000/svg">
<path d="M13.9373 0.780273C6.75746 0.780273 0.937256 6.60048 0.937256 13.7803C0.937256 20.9601 6.75746 26.7803 13.9373 26.7803C21.117 26.7803 26.9373 20.9601 26.9373 13.7803C26.9373 6.60048 21.117 0.780273 13.9373 0.780273ZM10.755 19.1685H8.12246V10.6968H10.755V19.1685ZM9.42246 9.65684C8.59101 9.65684 8.0534 9.06777 8.0534 8.33923C8.0534 7.59579 8.60726 7.02434 9.45632 7.02434C10.3054 7.02434 10.8254 7.59579 10.8416 8.33923C10.8416 9.06777 10.3054 9.65684 9.42246 9.65684ZM20.3695 19.1685H17.737V14.4736C17.737 13.3808 17.3552 12.6387 16.4032 12.6387C15.676 12.6387 15.244 13.1411 15.0531 13.6245C14.9827 13.7965 14.9651 14.0403 14.9651 14.2827V19.1671H12.3312V13.3984C12.3312 12.3408 12.2974 11.4565 12.2622 10.6955H14.5493L14.6699 11.8723H14.7227C15.0693 11.3198 15.9184 10.5045 17.3389 10.5045C19.0709 10.5045 20.3695 11.6651 20.3695 14.1594V19.1685Z" fill="#F6921E"/>
</svg>
