<svg width="14" height="14" viewBox="0 0 14 14" fill="none" xmlns="http://www.w3.org/2000/svg">
<path d="M13.2612 10.6832L10.2948 7.98612C10.1546 7.85868 9.9703 7.79071 9.78091 7.79656C9.59151 7.80242 9.4118 7.88164 9.27972 8.0175L7.53345 9.81338C7.11312 9.73311 6.26808 9.46968 5.39823 8.60202C4.52837 7.73145 4.26494 6.88423 4.18686 6.46682L5.98129 4.71983C6.11732 4.58784 6.19666 4.4081 6.20252 4.21865C6.20837 4.0292 6.14029 3.84491 6.01267 3.70477L3.31628 0.739128C3.1886 0.59855 3.01116 0.513279 2.82162 0.501424C2.63209 0.48957 2.4454 0.552067 2.30121 0.675641L0.717669 2.03368C0.591505 2.1603 0.516201 2.32882 0.506044 2.50728C0.495098 2.68971 0.286392 7.0112 3.63736 10.3636C6.5607 13.2862 10.2225 13.5 11.231 13.5C11.3785 13.5 11.4689 13.4956 11.493 13.4942C11.6715 13.4842 11.8399 13.4085 11.9659 13.2818L13.3232 11.6976C13.4473 11.5538 13.5102 11.3673 13.4986 11.1778C13.4871 10.9882 13.4018 10.8108 13.2612 10.6832Z" fill="white"/>
</svg>
