<svg width="127" height="99" viewBox="0 0 127 99" fill="none" xmlns="http://www.w3.org/2000/svg">
<path d="M54.5314 88.4168V57.1613L35.267 41.9719L5.40598 50.8317V88.4168H0.971924V48.4685L35.267 38.899L56.5939 56.4849V88.4168H56.6023H54.5314Z" fill="#F6921E"/>
<path d="M83.1565 88.4169V47.8172L56.7108 26.9746L15.7354 39.1328V88.4169H9.64795V35.8845L56.7108 22.7577L85.9956 46.8903V88.4169H83.1565Z" fill="#F6921E"/>
<path d="M126.278 33.7385L56.5938 56.485L55.6753 55.7251L123.756 31.6592L126.278 33.7385Z" fill="#F6921E"/>
<path d="M88.6345 2.71676L36.1856 39.6589L35.2671 38.899L86.1127 0.637512L88.6345 2.71676Z" fill="#F6921E"/>
<path d="M73.6621 4.10291L29.8977 40.4021L28.428 40.8113L66.7146 6.0402L73.6621 4.10291Z" fill="#F6921E"/>
<path d="M57.2704 8.67896L23.3344 42.2309L21.8647 42.64L51.3416 10.3323L57.2704 8.67896Z" fill="#F6921E"/>
<path d="M43.8176 12.4282L16.7707 44.0595L15.301 44.4687L38.5986 13.8812L43.8176 12.4282Z" fill="#F6921E"/>
<path d="M37.6969 14.1318L10.2074 45.8883L8.74609 46.2975L32.4362 15.6014L37.6969 14.1318Z" fill="#F6921E"/>
<path d="M96.5338 9.2217L40.2855 43.0408L39.3669 42.2809L94.012 7.14246L96.5338 9.2217Z" fill="#F6921E"/>
<path d="M103.607 15.0503L44.3939 46.4228L43.4753 45.6712L101.085 12.9711L103.607 15.0503Z" fill="#F6921E"/>
<path d="M111.297 21.3966L48.494 49.813L47.5754 49.0531L108.775 19.3173L111.297 21.3966Z" fill="#F6921E"/>
<path d="M118.529 27.3504L52.6024 53.1949L51.6838 52.435L116.007 25.2712L118.529 27.3504Z" fill="#F6921E"/>
<path d="M122.387 88.4169V35.0078L86.1124 6.41599L29.8975 23.0917V88.4169H21.5471V18.641L86.1124 0.637512L126.278 33.7385V88.4169H122.387Z" fill="#F6921E"/>
<path d="M126.278 88.4169H0.971924V98.5626H126.278V88.4169Z" fill="#F6921E"/>
<path d="M26.8999 17.1462L2.44159 48.0594L0.971924 48.4686L21.5473 18.641L26.8999 17.1462Z" fill="#F6921E"/>
</svg>
