<svg width="28" height="27" viewBox="0 0 28 27" fill="none" xmlns="http://www.w3.org/2000/svg">
<path d="M14.4373 0.780273C6.98212 0.780273 0.937256 6.60126 0.937256 13.7803C0.937256 20.9593 6.98212 26.7803 14.4373 26.7803C21.8924 26.7803 27.9373 20.9593 27.9373 13.7803C27.9373 6.60126 21.8924 0.780273 14.4373 0.780273ZM20.9251 10.5796C20.9341 10.716 20.9341 10.8582 20.9341 10.9975C20.9341 15.2573 17.5652 20.1642 11.4088 20.1642C9.51036 20.1642 7.75054 19.6332 6.26795 18.7191C6.53915 18.7481 6.79831 18.7597 7.07554 18.7597C8.6425 18.7597 10.0829 18.249 11.231 17.3843C9.76047 17.3553 8.52498 16.4267 8.1031 15.1499C8.61839 15.2225 9.08246 15.2225 9.61281 15.0919C8.85563 14.9437 8.17505 14.5477 7.6867 13.9712C7.19836 13.3946 6.93236 12.673 6.93391 11.9289V11.8883C7.37688 12.1292 7.89819 12.2771 8.44362 12.2975C7.98511 12.0032 7.60908 11.6045 7.34889 11.1368C7.08869 10.6691 6.95236 10.1468 6.95199 9.61621C6.95199 9.01554 7.11471 8.4671 7.40701 7.99121C8.24745 8.9875 9.2962 9.80234 10.4851 10.3828C11.674 10.9632 12.9764 11.2962 14.3077 11.3602C13.8346 9.16934 15.5341 7.39634 17.5772 7.39634C18.5415 7.39634 19.4094 7.78518 20.0211 8.41197C20.7774 8.27559 21.5006 8.00282 22.1455 7.63719C21.8954 8.38295 21.3711 9.01264 20.675 9.41018C21.35 9.34054 22.0009 9.16063 22.6035 8.90818C22.1485 9.55237 21.579 10.124 20.9251 10.5796Z" fill="#F6921E"/>
</svg>
