<svg width="28" height="28" viewBox="0 0 28 28" fill="none" xmlns="http://www.w3.org/2000/svg">
<path d="M14.4062 0.442871C6.95112 0.442871 0.90625 6.48774 0.90625 13.9429C0.90625 21.398 6.95112 27.4429 14.4062 27.4429C21.8614 27.4429 27.9062 21.398 27.9062 13.9429C27.9062 6.48774 21.8614 0.442871 14.4062 0.442871ZM19.7249 18.0923L18.8631 19.2675C18.8443 19.2931 18.8207 19.3148 18.7936 19.3312C18.7664 19.3476 18.7363 19.3585 18.705 19.3633C18.6736 19.3681 18.6416 19.3666 18.6108 19.3589C18.58 19.3513 18.5511 19.3376 18.5256 19.3188L13.5414 15.6846C13.5104 15.6623 13.4851 15.6329 13.4678 15.5988C13.4505 15.5647 13.4416 15.527 13.442 15.4887V7.19287C13.442 7.06028 13.5504 6.9518 13.683 6.9518H15.1325C15.2651 6.9518 15.3735 7.06028 15.3735 7.19287V14.651L19.6706 17.7578C19.7791 17.8332 19.8032 17.9838 19.7249 18.0923Z" fill="#F6921E"/>
</svg>
